# xmcd
#
# Track frame offsets:
#	150
#	20035
#	37685
#	54120
#	66685
#	80032
#	94510
#	112830
#	127107
#	143195
#	157722
#	172075
#	183692
#	204757
#	219675
#	236215
#	261525
#
# Disc length: 3833 seconds
#
# Revision: 1
# Processed by: cddbd v1.5.1PL0 Copyright (c) Steve Scherf et al.
# Submitted via: CDex 1.50Beta5
#
DISCID=f50ef711
DTITLE=サウンドトラック - 決定盤 沖縄の歌
DYEAR=1900
DGENRE=Other
TTITLE0=芭蕉布
TTITLE1=美わしの琉球
TTITLE2=十九の春
TTITLE3=安里屋ゆんた
TTITLE4=娘ジントヨー
TTITLE5=南国育ち
TTITLE6=沖縄育ち
TTITLE7=えんどうの花
TTITLE8=てぃんさぐぬ花
TTITLE9=永良部百合の花
TTITLE10=遊び庭
TTITLE11=谷茶前
TTITLE12=なんた浜
TTITLE13=かなさんどー
TTITLE14=ハイサイおじさん
TTITLE15=カチャーシー
TTITLE16=7月エイサー
EXTD=
EXTT0=
EXTT1=
EXTT2=
EXTT3=
EXTT4=
EXTT5=
EXTT6=
EXTT7=
EXTT8=
EXTT9=
EXTT10=
EXTT11=
EXTT12=
EXTT13=
EXTT14=
EXTT15=
EXTT16=
PLAYORDER=
